# xmcd
#
# Track frame offsets:
#	150
#	20673
#	46297
#	68160
#	86638
#	108136
#	128586
#	143885
#	163181
#	197878
#	221553
#
# Disc length: 3269 seconds
#
# Revision: 3278245772
# Processed by: cddbd v1.5.2PL0 Copyright (c) Steve Scherf et al.
# Submitted via: EZCDAudioConverter 8.0.2.1
#
DISCID=9b0cc30b
DTITLE=Dương Ngọc Thái - Một Thoáng Quê Hương 3 [CD1)
DYEAR=2011
DGENRE=Classic Rock
TTITLE0=Đơn côi chiếc bóng
TTITLE1=Hướng về miền Trung
TTITLE2=Cô bạn học
TTITLE3=Không nhà
TTITLE4=Không ai không có lỗi lầm
TTITLE5=Nhớ người yêu
TTITLE6=Thân trai hai vợ
TTITLE7=LK Cha cha cha
TTITLE8=Mừng tuổi mẹ
TTITLE9=Tiễn em theo chồng
TTITLE10=LK Tàu về quê hương, Túp lều lý tưởng
EXTD=
EXTT0=
EXTT1=
EXTT2=
EXTT3=
EXTT4=
EXTT5=
EXTT6=
EXTT7=
EXTT8=
EXTT9=
EXTT10=
PLAYORDER=
